<svg id="Capa_1" data-name="Capa 1" xmlns="http://www.w3.org/2000/svg" viewBox="0 0 263.67 240.92"><defs><style>.cls-1{fill:#e52323;}.cls-2{fill:#fdfdfd;}</style></defs><path class="cls-1" d="M509.24,253.26c25.5-3.16,46.83-3,50.44,27.55,1.42,11.95,10.92,8.87,17.83,9.37,59.31,4.32,118.62,8.93,178,12,15.62.81,19.56,5.12,16.38,20.19-5.58,26.4-9.84,53.09-14.06,79.75-2.81,17.76-10.48,27.1-30.46,26.56-42.47-1.16-85-1-127.48,0-18.26.44-26.72-7.29-30.5-24.14-8.76-39.1-18.71-77.94-27.11-117.12-2.47-11.55-5.68-18.71-19-16.79C510.21,272.46,511.43,261.91,509.24,253.26Z" transform="translate(-509.24 -251.93)"/><path class="cls-1" d="M624.67,469c-1.44,14.22-8.53,23.7-23,23.85s-23.08-8.63-23.15-23c-.08-13.35,8.21-21.73,21.32-22.58C614.4,446.28,622,455.29,624.67,469Z" transform="translate(-509.24 -251.93)"/><path class="cls-1" d="M745.45,468.37c-2.14,15.48-9.44,24.82-24,24.47-14.33-.34-22.86-9.35-22.42-23.76.41-13.23,8.78-21.4,22-21.91C736,446.61,742.48,456.48,745.45,468.37Z" transform="translate(-509.24 -251.93)"/><path class="cls-2" d="M709.75,348.78c-.18,14.85-31.38,52.12-46,54.44-2.59.41-6-.81-8.24-2.37-15.26-10.56-29.87-22.07-38.58-38.91-5.73-11.06-5.43-22.57,3.87-32,8.3-8.42,18.89-11.64,29.38-5.5,8.36,4.9,14.28,3.81,22.88.1C691.81,316.48,710,329.34,709.75,348.78Z" transform="translate(-509.24 -251.93)"/></svg>