<svg xmlns="http://www.w3.org/2000/svg" viewBox="0 0 1889.68 1733.45"><defs><style>.cls-1{fill:#e52c42;}</style></defs><g id="objects"><path class="cls-1" d="M2042,366.82c107.75,0,209,41.95,285.22,118.14S2445.4,662.43,2445.4,770.17a902.88,902.88,0,0,1-36.86,254.09c-22.43,76.52-55.55,153.18-98.43,227.87-73.46,128-176.55,252.58-306.39,370.39-117.17,106.31-234.71,187.09-312.67,236.15-44.33,27.88-81.27,49-106.55,62.81-25.28-13.84-62.22-34.93-106.54-62.81-141.26-88.87-248-177.48-312.67-236.15-129.84-117.81-232.93-242.43-306.4-370.39-42.88-74.69-76-151.35-98.43-227.87a903.23,903.23,0,0,1-36.85-254.09c0-107.74,41.95-209,118.14-285.21S1019.22,366.82,1127,366.82c105.92,0,201,46.07,282.45,136.94,92.88,113.93,172.38,266.41,172.38,266.41s82.28-148.77,177-262.48c83.39-93.48,178.68-140.87,283.23-140.87m0-83.95c-312.26,0-457.54,337.88-457.54,337.88s-138-337.88-457.54-337.88c-269.13,0-487.3,218.17-487.3,487.3,0,784.89,944.84,1246.15,944.84,1246.15s944.84-461.26,944.84-1246.15c0-269.13-218.16-487.3-487.3-487.3Z" transform="translate(-639.66 -282.87)"/></g></svg>